<svg xmlns="http://www.w3.org/2000/svg" width="512" height="512" viewBox="0 0 512 512">
  <defs>
    <linearGradient id="sun" x1="0" y1="0" x2="0" y2="1">
      <stop offset="0%" stop-color="#FCAB83"/>
      <stop offset="100%" stop-color="#FBC49F"/>
    </linearGradient>
  </defs>
  <rect width="512" height="512" fill="#FEFEFE"/>
  <circle cx="377.1" cy="184.1" r="39.4" fill="url(#sun)"/>
  <g fill="none" stroke="#1C5C58" stroke-width="6.3" stroke-linecap="round" stroke-linejoin="round">
    <path d="M94.5 360.4C98.1 358.7 109.0 355.8 116.2 350.5C123.4 345.3 130.6 337.6 137.8 328.9C145.1 320.2 152.3 306.2 159.5 298.3C166.7 290.5 173.9 289.8 181.2 281.6C188.4 273.4 195.6 255.3 202.8 249.1C210.1 242.9 217.3 240.9 224.5 244.2C231.7 247.5 238.9 263.9 246.2 268.8C253.4 273.7 260.6 270.6 267.8 273.7C275.0 276.8 282.3 280.9 289.5 287.5C296.7 294.1 303.9 309.3 311.1 313.1C318.4 316.9 325.6 310.3 332.8 310.2C340.0 310.0 347.2 308.8 354.5 312.1C361.7 315.4 364.3 320.3 376.1 329.8C387.9 339.4 413.9 362.3 425.4 369.2C436.8 376.1 441.8 370.9 445.0 371.2"/>
    <path d="M43.3 374.2C46.9 373.2 57.8 368.1 65.0 368.2C72.2 368.4 79.4 374.5 86.6 375.1C93.9 375.8 101.1 373.2 108.3 372.2C115.5 371.2 122.7 368.9 130.0 369.2C137.2 369.6 144.4 372.7 151.6 374.2C158.9 375.6 166.1 378.1 173.3 378.1C180.5 378.1 187.7 375.5 195.0 374.2C202.2 372.8 209.4 370.2 216.6 370.2C223.8 370.2 231.1 372.8 238.3 374.2C245.5 375.5 252.7 378.1 259.9 378.1C267.2 378.1 274.4 375.5 281.6 374.2C288.8 372.8 296.0 370.1 303.3 370.2C310.5 370.4 317.7 373.7 324.9 375.1C332.1 376.6 339.4 378.9 346.6 379.1C353.8 379.2 361.0 377.1 368.2 376.1C375.5 375.1 378.4 372.3 389.9 373.2C401.4 374.0 425.7 380.2 437.2 381.0C448.7 381.9 453.3 378.3 458.8 378.1C464.4 377.9 468.7 379.7 470.6 380.1"/>
  </g>
</svg>